<?xml version="1.0" standalone="no"?>
<!DOCTYPE svg PUBLIC "-//W3C//DTD SVG 20010904//EN"
 "http://www.w3.org/TR/2001/REC-SVG-20010904/DTD/svg10.dtd">
<svg version="1.0" xmlns="http://www.w3.org/2000/svg"
 width="1184.000000pt" height="1184.000000pt" viewBox="0 0 1184.000000 1184.000000"
 preserveAspectRatio="xMidYMid meet">
<metadata>
Created by potrace 1.11, written by Peter Selinger 2001-2013
</metadata>
<g transform="translate(0.000000,1184.000000) scale(0.100000,-0.100000)"
fill="#000000" stroke="none">
<path d="M2660 10177 l0 -1664 25 -11 c14 -7 32 -12 40 -12 8 0 15 -5 15 -12
0 -6 3 -9 6 -6 3 3 40 -8 82 -24 42 -17 82 -31 87 -32 6 -2 19 -6 30 -11 155
-60 457 -176 470 -179 6 -2 23 -8 38 -14 16 -7 31 -12 34 -12 3 0 19 -6 36
-14 18 -8 106 -43 197 -77 252 -95 285 -107 358 -135 37 -14 81 -30 97 -36 17
-5 49 -19 72 -29 24 -10 47 -19 53 -19 5 0 24 -6 42 -14 18 -8 51 -21 73 -29
67 -26 198 -76 230 -88 17 -7 35 -13 40 -15 9 -2 107 -39 440 -166 44 -16 89
-34 100 -38 11 -5 47 -18 80 -30 33 -11 75 -28 93 -36 18 -8 36 -13 40 -10 4
2 7 987 7 2188 l0 2183 -1392 3 -1393 2 0 -1663z"/>
<path d="M6405 9650 c0 -1204 4 -2190 8 -2190 5 0 32 9 60 21 29 11 63 25 77
31 14 6 57 21 95 35 39 14 81 30 95 36 14 6 27 11 30 11 5 1 111 42 145 56 65
27 192 73 203 73 6 0 12 4 12 8 0 4 15 11 32 15 18 3 46 12 63 19 16 7 44 19
60 26 17 7 35 13 40 15 15 3 147 53 170 64 11 5 112 44 225 86 113 42 225 85
250 94 25 10 75 29 113 43 37 14 67 24 67 21 0 -2 10 2 23 10 18 11 83 36 107
41 3 1 23 9 45 19 22 10 45 19 50 20 6 2 19 6 30 11 11 4 79 30 150 57 72 28
135 51 140 53 6 1 24 8 40 14 17 7 66 26 110 42 44 16 89 33 100 38 11 5 46
19 78 30 31 12 82 30 112 42 l55 20 0 1665 0 1664 -1393 0 -1392 0 0 -2190z"/>
<path d="M2660 6735 c0 -393 2 -715 5 -715 2 0 53 19 112 42 59 23 110 43 113
43 3 1 19 7 35 14 17 7 59 24 95 37 36 14 79 31 95 37 17 7 33 11 38 9 4 -1 7
3 7 8 0 6 5 10 12 10 10 0 140 47 193 71 21 9 215 84 435 169 74 28 149 58
165 65 17 7 46 18 65 25 19 7 49 19 65 26 17 7 68 27 115 44 47 18 103 40 125
50 22 9 58 23 80 30 22 7 44 16 49 21 6 5 17 9 26 9 9 0 25 6 36 14 18 14 18
15 -11 22 -17 4 -46 14 -65 23 -19 8 -37 15 -40 16 -3 1 -14 5 -25 9 -91 35
-237 87 -245 88 -3 0 -13 4 -24 10 -17 9 -146 58 -206 78 -14 5 -50 18 -80 30
-30 12 -86 32 -125 46 -38 14 -79 29 -90 34 -11 4 -58 22 -105 40 -47 17 -101
37 -120 45 -19 8 -80 30 -135 50 -55 19 -109 39 -120 44 -11 5 -36 14 -55 21
-19 7 -44 16 -55 21 -11 4 -83 31 -160 59 -77 28 -150 55 -163 60 -13 6 -27
10 -32 10 -6 0 -10 -269 -10 -715z"/>
<path d="M9140 7440 c-14 -4 -38 -13 -55 -21 -16 -7 -33 -13 -37 -14 -5 -2
-10 -4 -13 -5 -3 -1 -8 -3 -12 -5 -5 -1 -21 -7 -38 -14 -16 -7 -48 -19 -70
-26 -22 -7 -76 -27 -120 -43 -44 -16 -181 -66 -305 -111 -124 -45 -234 -86
-245 -91 -11 -4 -54 -20 -95 -35 -41 -15 -104 -38 -140 -52 -36 -14 -73 -27
-82 -28 -10 -2 -32 -10 -50 -18 -18 -8 -96 -38 -173 -66 -77 -28 -201 -73
-275 -100 -74 -27 -136 -53 -138 -59 -2 -8 38 -27 78 -37 3 -1 19 -7 35 -14
39 -15 49 -19 55 -18 3 0 16 -6 30 -13 14 -8 30 -15 35 -16 6 -2 64 -23 130
-49 107 -42 301 -116 470 -180 421 -161 674 -257 693 -265 50 -22 73 -31 215
-84 82 -31 150 -56 153 -56 2 0 4 322 4 715 0 566 -3 715 -12 714 -7 0 -24 -4
-38 -9z"/>
<path d="M6409 6043 c-1 -4 -2 -368 -3 -808 -2 -870 -5 -807 54 -1000 12 -38
23 -77 25 -85 2 -8 4 -16 5 -17 2 -2 3 -6 5 -10 1 -5 4 -15 8 -23 5 -14 17
-60 23 -88 1 -8 6 -21 10 -30 4 -9 8 -21 10 -27 1 -5 17 -57 34 -115 18 -58
33 -109 35 -115 1 -5 5 -17 8 -25 8 -20 60 -194 59 -197 -1 -2 6 -22 14 -45 9
-24 17 -50 19 -58 5 -19 32 -109 80 -265 21 -66 38 -124 40 -130 1 -5 4 -17 7
-25 8 -20 49 -159 53 -174 1 -6 5 -18 8 -26 7 -18 48 -151 51 -165 5 -19 37
-130 43 -145 3 -8 7 -20 8 -26 2 -10 53 -174 83 -269 3 -11 7 -22 7 -25 1 -3
8 -25 15 -50 7 -25 14 -48 16 -52 1 -5 3 -10 4 -13 1 -3 4 -9 5 -15 1 -5 3
-11 5 -12 1 -2 3 -10 5 -19 3 -18 46 -158 75 -249 12 -36 23 -74 26 -85 2 -12
12 -46 23 -78 11 -31 17 -57 13 -57 -3 0 -1 -5 6 -12 7 -7 12 -22 12 -33 0
-12 3 -25 7 -29 4 -3 8 -12 9 -19 2 -7 12 -42 23 -79 50 -164 62 -204 66 -220
2 -9 9 -26 15 -37 6 -12 9 -21 6 -21 -3 0 9 -39 25 -88 16 -48 29 -88 28 -90
0 -1 11 -41 26 -87 14 -46 28 -93 30 -104 2 -11 9 -30 16 -43 7 -13 12 -24 11
-25 -1 -2 -1 -5 -1 -8 1 -3 3 -9 4 -15 1 -5 3 -11 4 -12 2 -2 4 -14 7 -28 2
-14 7 -32 11 -40 3 -8 7 -19 9 -25 1 -5 21 -71 44 -145 47 -150 60 -195 66
-219 2 -9 11 -38 20 -66 9 -27 18 -56 20 -62 3 -10 156 -13 724 -13 l720 0 -2
2481 -3 2481 -140 55 c-77 30 -149 58 -160 63 -11 4 -47 18 -80 31 -33 12 -66
27 -72 32 -7 5 -13 7 -13 3 0 -4 -17 2 -37 13 -21 10 -42 20 -48 21 -14 3 -52
17 -100 36 -86 35 -102 41 -118 42 -4 1 -20 8 -35 16 -15 8 -88 38 -162 66
-74 28 -144 55 -155 60 -29 13 -428 168 -505 197 -36 13 -78 30 -95 37 -16 8
-46 19 -65 26 -19 7 -54 21 -77 31 -24 11 -47 19 -53 19 -6 0 -18 4 -28 9 -9
6 -69 30 -132 54 -63 25 -239 93 -390 152 -151 59 -283 111 -292 116 -10 6
-19 6 -19 2z"/>
<path d="M5300 5993 c-63 -25 -130 -52 -149 -60 -18 -8 -39 -16 -45 -18 -11
-2 -23 -7 -86 -32 -19 -8 -168 -66 -330 -129 -162 -63 -304 -118 -315 -123
-11 -5 -49 -21 -85 -34 -124 -48 -305 -118 -325 -127 -11 -4 -54 -21 -95 -36
-41 -15 -79 -31 -85 -35 -5 -3 -35 -14 -65 -24 -30 -10 -59 -20 -65 -24 -5 -3
-12 -6 -15 -7 -3 0 -18 -6 -35 -13 -58 -26 -71 -31 -140 -56 -38 -14 -79 -30
-90 -35 -11 -5 -51 -21 -90 -36 -38 -14 -83 -31 -100 -38 -33 -14 -128 -51
-310 -121 -66 -25 -129 -50 -140 -55 -11 -5 -32 -14 -47 -20 l-28 -10 0 -2480
0 -2480 721 2 721 3 39 130 c53 173 97 317 120 390 16 55 49 161 129 425 16
52 32 106 36 120 5 14 9 28 10 33 1 4 2 8 4 10 1 1 3 9 5 17 1 8 10 38 20 65
9 28 18 58 20 68 2 10 20 69 39 130 76 244 137 443 141 461 5 21 33 112 42
136 3 8 8 24 10 35 2 11 6 27 10 35 3 8 7 17 8 20 11 36 29 98 31 106 1 7 18
63 37 125 20 63 47 155 62 204 14 50 30 97 34 105 8 16 23 75 22 85 -1 3 6 19
14 35 9 17 13 30 11 30 -3 0 4 26 15 57 11 32 21 66 24 78 4 18 46 157 191
625 25 80 47 154 49 165 3 11 12 40 20 65 8 25 31 99 51 165 20 66 49 163 65
215 17 52 32 104 34 114 3 11 15 49 27 85 l22 66 1 818 c0 722 -2 817 -15 816
-8 0 -67 -21 -130 -46z"/>
</g>
</svg>
